<mxfile host="app.diagrams.net" agent="Mozilla/5.0 (Macintosh; Intel Mac OS X 10_15_7) AppleWebKit/537.36 (KHTML, like Gecko) Chrome/129.0.0.0 Safari/537.36" version="24.8.0">
  <diagram name="Page-1" id="kltpETyp6ktUoRGK4CSb">
    <mxGraphModel dx="2084" dy="1271" grid="1" gridSize="10" guides="1" tooltips="1" connect="1" arrows="1" fold="1" page="1" pageScale="1" pageWidth="827" pageHeight="1169" math="0" shadow="0">
      <root>
        <mxCell id="0" />
        <mxCell id="1" parent="0" />
        <mxCell id="4v6q54yL7Kz8wPH0n8rs-11" value="UI 层" style="swimlane;sketch=1;hachureGap=4;jiggle=2;curveFitting=1;fontFamily=Comic Sans MS;fontSize=20;fontStyle=0;fillColor=#dae8fc;strokeColor=#6c8ebf;" parent="1" vertex="1">
          <mxGeometry x="263" y="140" width="840" height="250" as="geometry" />
        </mxCell>
        <mxCell id="4v6q54yL7Kz8wPH0n8rs-12" value="&lt;font face=&quot;Comic Sans MS&quot;&gt;Toolbar&lt;/font&gt;" style="rounded=0;whiteSpace=wrap;html=1;sketch=1;hachureGap=4;jiggle=2;curveFitting=1;fontFamily=Architects Daughter;fontSource=https%3A%2F%2Ffonts.googleapis.com%2Fcss%3Ffamily%3DArchitects%2BDaughter;fontSize=20;fillColor=#f8cecc;strokeColor=#b85450;" parent="4v6q54yL7Kz8wPH0n8rs-11" vertex="1">
          <mxGeometry x="10" y="30" width="810" height="30" as="geometry" />
        </mxCell>
        <mxCell id="4v6q54yL7Kz8wPH0n8rs-13" value="&lt;font face=&quot;Comic Sans MS&quot;&gt;File List&lt;/font&gt;" style="rounded=0;whiteSpace=wrap;html=1;sketch=1;hachureGap=4;jiggle=2;curveFitting=1;fontFamily=Architects Daughter;fontSource=https%3A%2F%2Ffonts.googleapis.com%2Fcss%3Ffamily%3DArchitects%2BDaughter;fontSize=20;fillColor=#d5e8d4;strokeColor=#82b366;" parent="4v6q54yL7Kz8wPH0n8rs-11" vertex="1">
          <mxGeometry x="10" y="70" width="110" height="170" as="geometry" />
        </mxCell>
        <mxCell id="4v6q54yL7Kz8wPH0n8rs-14" value="&lt;font face=&quot;Comic Sans MS&quot;&gt;Editor&lt;/font&gt;" style="rounded=0;whiteSpace=wrap;html=1;sketch=1;hachureGap=4;jiggle=2;curveFitting=1;fontFamily=Architects Daughter;fontSource=https%3A%2F%2Ffonts.googleapis.com%2Fcss%3Ffamily%3DArchitects%2BDaughter;fontSize=20;fillColor=#ffe6cc;strokeColor=#d79b00;" parent="4v6q54yL7Kz8wPH0n8rs-11" vertex="1">
          <mxGeometry x="130" y="70" width="370" height="170" as="geometry" />
        </mxCell>
        <mxCell id="4v6q54yL7Kz8wPH0n8rs-15" value="&lt;font face=&quot;Comic Sans MS&quot;&gt;Preview&lt;br&gt;(iframe)&lt;br&gt;&lt;/font&gt;" style="rounded=0;whiteSpace=wrap;html=1;sketch=1;hachureGap=4;jiggle=2;curveFitting=1;fontFamily=Architects Daughter;fontSource=https%3A%2F%2Ffonts.googleapis.com%2Fcss%3Ffamily%3DArchitects%2BDaughter;fontSize=20;fillColor=#e1d5e7;strokeColor=#9673a6;" parent="4v6q54yL7Kz8wPH0n8rs-11" vertex="1">
          <mxGeometry x="510" y="70" width="320" height="170" as="geometry" />
        </mxCell>
        <mxCell id="4v6q54yL7Kz8wPH0n8rs-17" value="构建层" style="swimlane;sketch=1;hachureGap=4;jiggle=2;curveFitting=1;fontFamily=Comic Sans MS;fontSize=20;fontStyle=0;fillColor=#bac8d3;strokeColor=#23445d;startSize=30;" parent="1" vertex="1">
          <mxGeometry x="260" y="450" width="843" height="720" as="geometry" />
        </mxCell>
        <mxCell id="4v6q54yL7Kz8wPH0n8rs-90" value="" style="rounded=0;whiteSpace=wrap;html=1;sketch=1;hachureGap=4;jiggle=2;curveFitting=1;fontFamily=Architects Daughter;fontSource=https%3A%2F%2Ffonts.googleapis.com%2Fcss%3Ffamily%3DArchitects%2BDaughter;fontSize=20;fillColor=#b1ddf0;strokeColor=#10739e;" parent="4v6q54yL7Kz8wPH0n8rs-17" vertex="1">
          <mxGeometry x="513" y="40" width="307" height="650" as="geometry" />
        </mxCell>
        <mxCell id="4v6q54yL7Kz8wPH0n8rs-76" style="edgeStyle=orthogonalEdgeStyle;rounded=0;sketch=1;hachureGap=4;jiggle=2;curveFitting=1;orthogonalLoop=1;jettySize=auto;html=1;exitX=0.5;exitY=1;exitDx=0;exitDy=0;entryX=0.5;entryY=0;entryDx=0;entryDy=0;fontFamily=Architects Daughter;fontSource=https%3A%2F%2Ffonts.googleapis.com%2Fcss%3Ffamily%3DArchitects%2BDaughter;fontSize=16;" parent="4v6q54yL7Kz8wPH0n8rs-17" source="4v6q54yL7Kz8wPH0n8rs-22" target="4v6q54yL7Kz8wPH0n8rs-68" edge="1">
          <mxGeometry relative="1" as="geometry" />
        </mxCell>
        <mxCell id="4v6q54yL7Kz8wPH0n8rs-22" value="" style="rounded=0;whiteSpace=wrap;html=1;sketch=1;hachureGap=4;jiggle=2;curveFitting=1;fontFamily=Architects Daughter;fontSource=https%3A%2F%2Ffonts.googleapis.com%2Fcss%3Ffamily%3DArchitects%2BDaughter;fontSize=20;fillColor=#fad7ac;strokeColor=#b46504;" parent="4v6q54yL7Kz8wPH0n8rs-17" vertex="1">
          <mxGeometry x="10" y="40" width="470" height="270" as="geometry" />
        </mxCell>
        <mxCell id="4v6q54yL7Kz8wPH0n8rs-23" value="&lt;font face=&quot;Comic Sans MS&quot;&gt;Virtual File System&lt;/font&gt;" style="text;html=1;strokeColor=none;fillColor=none;align=center;verticalAlign=middle;whiteSpace=wrap;rounded=0;fontSize=20;fontFamily=Architects Daughter;" parent="4v6q54yL7Kz8wPH0n8rs-17" vertex="1">
          <mxGeometry x="160" y="40" width="190" height="30" as="geometry" />
        </mxCell>
        <mxCell id="4v6q54yL7Kz8wPH0n8rs-38" value="" style="rounded=0;whiteSpace=wrap;html=1;sketch=1;hachureGap=4;jiggle=2;curveFitting=1;fontFamily=Architects Daughter;fontSource=https%3A%2F%2Ffonts.googleapis.com%2Fcss%3Ffamily%3DArchitects%2BDaughter;fontSize=20;fillColor=#b1ddf0;strokeColor=#10739e;" parent="4v6q54yL7Kz8wPH0n8rs-17" vertex="1">
          <mxGeometry x="26" y="80" width="140" height="220" as="geometry" />
        </mxCell>
        <mxCell id="4v6q54yL7Kz8wPH0n8rs-39" value="&lt;font face=&quot;Comic Sans MS&quot;&gt;File&lt;/font&gt;" style="text;html=1;strokeColor=none;fillColor=none;align=center;verticalAlign=middle;whiteSpace=wrap;rounded=0;fontSize=20;fontFamily=Architects Daughter;" parent="4v6q54yL7Kz8wPH0n8rs-17" vertex="1">
          <mxGeometry x="26" y="80" width="60" height="30" as="geometry" />
        </mxCell>
        <mxCell id="4v6q54yL7Kz8wPH0n8rs-42" style="edgeStyle=orthogonalEdgeStyle;rounded=0;sketch=1;hachureGap=4;jiggle=2;curveFitting=1;orthogonalLoop=1;jettySize=auto;html=1;exitX=0.5;exitY=1;exitDx=0;exitDy=0;entryX=0.5;entryY=0;entryDx=0;entryDy=0;fontFamily=Architects Daughter;fontSource=https%3A%2F%2Ffonts.googleapis.com%2Fcss%3Ffamily%3DArchitects%2BDaughter;fontSize=16;" parent="4v6q54yL7Kz8wPH0n8rs-17" source="4v6q54yL7Kz8wPH0n8rs-40" target="4v6q54yL7Kz8wPH0n8rs-41" edge="1">
          <mxGeometry relative="1" as="geometry" />
        </mxCell>
        <mxCell id="4v6q54yL7Kz8wPH0n8rs-40" value="&lt;font face=&quot;Comic Sans MS&quot;&gt;source code&lt;/font&gt;" style="text;html=1;strokeColor=none;fillColor=none;align=center;verticalAlign=middle;whiteSpace=wrap;rounded=0;fontSize=20;fontFamily=Architects Daughter;" parent="4v6q54yL7Kz8wPH0n8rs-17" vertex="1">
          <mxGeometry x="31" y="125" width="130" height="30" as="geometry" />
        </mxCell>
        <mxCell id="4v6q54yL7Kz8wPH0n8rs-41" value="&lt;font face=&quot;Comic Sans MS&quot;&gt;compiled code&lt;br&gt;(js/css)&lt;br&gt;&lt;/font&gt;" style="text;html=1;strokeColor=none;fillColor=none;align=center;verticalAlign=middle;whiteSpace=wrap;rounded=0;fontSize=20;fontFamily=Architects Daughter;" parent="4v6q54yL7Kz8wPH0n8rs-17" vertex="1">
          <mxGeometry x="29" y="220" width="135" height="60" as="geometry" />
        </mxCell>
        <mxCell id="4v6q54yL7Kz8wPH0n8rs-43" value="" style="rounded=0;whiteSpace=wrap;html=1;sketch=1;hachureGap=4;jiggle=2;curveFitting=1;fontFamily=Architects Daughter;fontSource=https%3A%2F%2Ffonts.googleapis.com%2Fcss%3Ffamily%3DArchitects%2BDaughter;fontSize=20;fillColor=#b1ddf0;strokeColor=#10739e;" parent="4v6q54yL7Kz8wPH0n8rs-17" vertex="1">
          <mxGeometry x="175" y="80" width="140" height="220" as="geometry" />
        </mxCell>
        <mxCell id="4v6q54yL7Kz8wPH0n8rs-44" value="&lt;font face=&quot;Comic Sans MS&quot;&gt;File&lt;/font&gt;" style="text;html=1;strokeColor=none;fillColor=none;align=center;verticalAlign=middle;whiteSpace=wrap;rounded=0;fontSize=20;fontFamily=Architects Daughter;" parent="4v6q54yL7Kz8wPH0n8rs-17" vertex="1">
          <mxGeometry x="175" y="80" width="60" height="30" as="geometry" />
        </mxCell>
        <mxCell id="4v6q54yL7Kz8wPH0n8rs-46" value="&lt;font face=&quot;Comic Sans MS&quot;&gt;source code&lt;/font&gt;" style="text;html=1;strokeColor=none;fillColor=none;align=center;verticalAlign=middle;whiteSpace=wrap;rounded=0;fontSize=20;fontFamily=Architects Daughter;" parent="4v6q54yL7Kz8wPH0n8rs-17" vertex="1">
          <mxGeometry x="180" y="125" width="130" height="30" as="geometry" />
        </mxCell>
        <mxCell id="4v6q54yL7Kz8wPH0n8rs-47" value="&lt;font face=&quot;Comic Sans MS&quot;&gt;compiled code&lt;br&gt;(js/css)&lt;br&gt;&lt;/font&gt;" style="text;html=1;strokeColor=none;fillColor=none;align=center;verticalAlign=middle;whiteSpace=wrap;rounded=0;fontSize=20;fontFamily=Architects Daughter;" parent="4v6q54yL7Kz8wPH0n8rs-17" vertex="1">
          <mxGeometry x="178" y="220" width="135" height="60" as="geometry" />
        </mxCell>
        <mxCell id="4v6q54yL7Kz8wPH0n8rs-45" style="edgeStyle=orthogonalEdgeStyle;rounded=0;sketch=1;hachureGap=4;jiggle=2;curveFitting=1;orthogonalLoop=1;jettySize=auto;html=1;exitX=0.5;exitY=1;exitDx=0;exitDy=0;entryX=0.5;entryY=0;entryDx=0;entryDy=0;fontFamily=Architects Daughter;fontSource=https%3A%2F%2Ffonts.googleapis.com%2Fcss%3Ffamily%3DArchitects%2BDaughter;fontSize=16;" parent="4v6q54yL7Kz8wPH0n8rs-17" source="4v6q54yL7Kz8wPH0n8rs-46" target="4v6q54yL7Kz8wPH0n8rs-47" edge="1">
          <mxGeometry relative="1" as="geometry" />
        </mxCell>
        <mxCell id="4v6q54yL7Kz8wPH0n8rs-48" value="" style="rounded=0;whiteSpace=wrap;html=1;sketch=1;hachureGap=4;jiggle=2;curveFitting=1;fontFamily=Architects Daughter;fontSource=https%3A%2F%2Ffonts.googleapis.com%2Fcss%3Ffamily%3DArchitects%2BDaughter;fontSize=20;fillColor=#b1ddf0;strokeColor=#10739e;" parent="4v6q54yL7Kz8wPH0n8rs-17" vertex="1">
          <mxGeometry x="322" y="80" width="140" height="220" as="geometry" />
        </mxCell>
        <mxCell id="4v6q54yL7Kz8wPH0n8rs-49" value="&lt;font face=&quot;Comic Sans MS&quot;&gt;File&lt;/font&gt;" style="text;html=1;strokeColor=none;fillColor=none;align=center;verticalAlign=middle;whiteSpace=wrap;rounded=0;fontSize=20;fontFamily=Architects Daughter;" parent="4v6q54yL7Kz8wPH0n8rs-17" vertex="1">
          <mxGeometry x="322" y="80" width="60" height="30" as="geometry" />
        </mxCell>
        <mxCell id="4v6q54yL7Kz8wPH0n8rs-51" value="&lt;font face=&quot;Comic Sans MS&quot;&gt;source code&lt;/font&gt;" style="text;html=1;strokeColor=none;fillColor=none;align=center;verticalAlign=middle;whiteSpace=wrap;rounded=0;fontSize=20;fontFamily=Architects Daughter;" parent="4v6q54yL7Kz8wPH0n8rs-17" vertex="1">
          <mxGeometry x="327" y="125" width="130" height="30" as="geometry" />
        </mxCell>
        <mxCell id="4v6q54yL7Kz8wPH0n8rs-52" value="&lt;font face=&quot;Comic Sans MS&quot;&gt;compiled code&lt;br&gt;(js/css)&lt;br&gt;&lt;/font&gt;" style="text;html=1;strokeColor=none;fillColor=none;align=center;verticalAlign=middle;whiteSpace=wrap;rounded=0;fontSize=20;fontFamily=Architects Daughter;" parent="4v6q54yL7Kz8wPH0n8rs-17" vertex="1">
          <mxGeometry x="325" y="220" width="135" height="60" as="geometry" />
        </mxCell>
        <mxCell id="4v6q54yL7Kz8wPH0n8rs-50" style="edgeStyle=orthogonalEdgeStyle;rounded=0;sketch=1;hachureGap=4;jiggle=2;curveFitting=1;orthogonalLoop=1;jettySize=auto;html=1;exitX=0.5;exitY=1;exitDx=0;exitDy=0;entryX=0.5;entryY=0;entryDx=0;entryDy=0;fontFamily=Architects Daughter;fontSource=https%3A%2F%2Ffonts.googleapis.com%2Fcss%3Ffamily%3DArchitects%2BDaughter;fontSize=16;" parent="4v6q54yL7Kz8wPH0n8rs-17" source="4v6q54yL7Kz8wPH0n8rs-51" target="4v6q54yL7Kz8wPH0n8rs-52" edge="1">
          <mxGeometry relative="1" as="geometry" />
        </mxCell>
        <mxCell id="4v6q54yL7Kz8wPH0n8rs-60" style="edgeStyle=orthogonalEdgeStyle;rounded=0;sketch=1;hachureGap=4;jiggle=2;curveFitting=1;orthogonalLoop=1;jettySize=auto;html=1;exitX=0;exitY=0.5;exitDx=0;exitDy=0;fontFamily=Architects Daughter;fontSource=https%3A%2F%2Ffonts.googleapis.com%2Fcss%3Ffamily%3DArchitects%2BDaughter;fontSize=16;strokeColor=#FF6666;" parent="4v6q54yL7Kz8wPH0n8rs-17" source="4v6q54yL7Kz8wPH0n8rs-53" edge="1">
          <mxGeometry relative="1" as="geometry">
            <mxPoint x="93" y="185" as="targetPoint" />
          </mxGeometry>
        </mxCell>
        <mxCell id="4v6q54yL7Kz8wPH0n8rs-63" style="edgeStyle=orthogonalEdgeStyle;rounded=0;sketch=1;hachureGap=4;jiggle=2;curveFitting=1;orthogonalLoop=1;jettySize=auto;html=1;exitX=0;exitY=0.5;exitDx=0;exitDy=0;fontFamily=Architects Daughter;fontSource=https%3A%2F%2Ffonts.googleapis.com%2Fcss%3Ffamily%3DArchitects%2BDaughter;fontSize=16;strokeColor=#FF6666;" parent="4v6q54yL7Kz8wPH0n8rs-17" source="4v6q54yL7Kz8wPH0n8rs-53" edge="1">
          <mxGeometry relative="1" as="geometry">
            <mxPoint x="243" y="185" as="targetPoint" />
          </mxGeometry>
        </mxCell>
        <mxCell id="4v6q54yL7Kz8wPH0n8rs-64" style="edgeStyle=orthogonalEdgeStyle;rounded=0;sketch=1;hachureGap=4;jiggle=2;curveFitting=1;orthogonalLoop=1;jettySize=auto;html=1;exitX=0;exitY=0.5;exitDx=0;exitDy=0;fontFamily=Architects Daughter;fontSource=https%3A%2F%2Ffonts.googleapis.com%2Fcss%3Ffamily%3DArchitects%2BDaughter;fontSize=16;strokeColor=#FF6666;" parent="4v6q54yL7Kz8wPH0n8rs-17" source="4v6q54yL7Kz8wPH0n8rs-53" edge="1">
          <mxGeometry relative="1" as="geometry">
            <mxPoint x="393" y="185" as="targetPoint" />
          </mxGeometry>
        </mxCell>
        <mxCell id="Xq_WoBRvCpadnjwO7v99-8" style="edgeStyle=orthogonalEdgeStyle;rounded=0;sketch=1;hachureGap=4;jiggle=2;curveFitting=1;orthogonalLoop=1;jettySize=auto;html=1;exitX=0.5;exitY=1;exitDx=0;exitDy=0;entryX=0.5;entryY=0;entryDx=0;entryDy=0;fontFamily=Architects Daughter;fontSource=https%3A%2F%2Ffonts.googleapis.com%2Fcss%3Ffamily%3DArchitects%2BDaughter;fontSize=16;" parent="4v6q54yL7Kz8wPH0n8rs-17" source="4v6q54yL7Kz8wPH0n8rs-53" target="Xq_WoBRvCpadnjwO7v99-7" edge="1">
          <mxGeometry relative="1" as="geometry" />
        </mxCell>
        <mxCell id="4v6q54yL7Kz8wPH0n8rs-53" value="&lt;font face=&quot;Comic Sans MS&quot;&gt;&lt;font color=&quot;#ff0000&quot;&gt;transfrom&lt;/font&gt; plugin&lt;/font&gt;" style="rounded=0;whiteSpace=wrap;html=1;sketch=1;hachureGap=4;jiggle=2;curveFitting=1;fontFamily=Architects Daughter;fontSource=https%3A%2F%2Ffonts.googleapis.com%2Fcss%3Ffamily%3DArchitects%2BDaughter;fontSize=20;fillColor=#fad9d5;strokeColor=#ae4132;" parent="4v6q54yL7Kz8wPH0n8rs-17" vertex="1">
          <mxGeometry x="567" y="161.5" width="197" height="47" as="geometry" />
        </mxCell>
        <mxCell id="4v6q54yL7Kz8wPH0n8rs-62" value="&lt;font style=&quot;font-size: 14px;&quot; face=&quot;Comic Sans MS&quot;&gt;transform&lt;/font&gt;" style="text;html=1;strokeColor=none;fillColor=none;align=center;verticalAlign=middle;whiteSpace=wrap;rounded=0;fontSize=20;fontFamily=Architects Daughter;" parent="4v6q54yL7Kz8wPH0n8rs-17" vertex="1">
          <mxGeometry x="107" y="158" width="60" height="30" as="geometry" />
        </mxCell>
        <mxCell id="4v6q54yL7Kz8wPH0n8rs-65" value="&lt;font style=&quot;font-size: 14px;&quot; face=&quot;Comic Sans MS&quot;&gt;transform&lt;/font&gt;" style="text;html=1;strokeColor=none;fillColor=none;align=center;verticalAlign=middle;whiteSpace=wrap;rounded=0;fontSize=20;fontFamily=Architects Daughter;" parent="4v6q54yL7Kz8wPH0n8rs-17" vertex="1">
          <mxGeometry x="254" y="157" width="60" height="30" as="geometry" />
        </mxCell>
        <mxCell id="4v6q54yL7Kz8wPH0n8rs-66" value="&lt;font style=&quot;font-size: 14px;&quot; face=&quot;Comic Sans MS&quot;&gt;transform&lt;/font&gt;" style="text;html=1;strokeColor=none;fillColor=none;align=center;verticalAlign=middle;whiteSpace=wrap;rounded=0;fontSize=20;fontFamily=Architects Daughter;" parent="4v6q54yL7Kz8wPH0n8rs-17" vertex="1">
          <mxGeometry x="405" y="157" width="60" height="30" as="geometry" />
        </mxCell>
        <mxCell id="4v6q54yL7Kz8wPH0n8rs-86" style="edgeStyle=orthogonalEdgeStyle;rounded=0;sketch=1;hachureGap=4;jiggle=2;curveFitting=1;orthogonalLoop=1;jettySize=auto;html=1;exitX=0.5;exitY=1;exitDx=0;exitDy=0;entryX=0.5;entryY=0;entryDx=0;entryDy=0;fontFamily=Architects Daughter;fontSource=https%3A%2F%2Ffonts.googleapis.com%2Fcss%3Ffamily%3DArchitects%2BDaughter;fontSize=16;" parent="4v6q54yL7Kz8wPH0n8rs-17" source="4v6q54yL7Kz8wPH0n8rs-68" target="4v6q54yL7Kz8wPH0n8rs-81" edge="1">
          <mxGeometry relative="1" as="geometry" />
        </mxCell>
        <mxCell id="4v6q54yL7Kz8wPH0n8rs-68" value="" style="rounded=0;whiteSpace=wrap;html=1;sketch=1;hachureGap=4;jiggle=2;curveFitting=1;fontFamily=Architects Daughter;fontSource=https%3A%2F%2Ffonts.googleapis.com%2Fcss%3Ffamily%3DArchitects%2BDaughter;fontSize=20;fillColor=#d0cee2;strokeColor=#56517e;" parent="4v6q54yL7Kz8wPH0n8rs-17" vertex="1">
          <mxGeometry x="11" y="376" width="469" height="130" as="geometry" />
        </mxCell>
        <mxCell id="4v6q54yL7Kz8wPH0n8rs-69" value="&lt;font face=&quot;Comic Sans MS&quot;&gt;modules&lt;/font&gt;" style="text;html=1;strokeColor=none;fillColor=none;align=center;verticalAlign=middle;whiteSpace=wrap;rounded=0;fontSize=20;fontFamily=Architects Daughter;" parent="4v6q54yL7Kz8wPH0n8rs-17" vertex="1">
          <mxGeometry x="155" y="377" width="170" height="30" as="geometry" />
        </mxCell>
        <mxCell id="4v6q54yL7Kz8wPH0n8rs-70" value="&lt;font face=&quot;Comic Sans MS&quot;&gt;processed&lt;/font&gt;" style="rounded=0;whiteSpace=wrap;html=1;sketch=1;hachureGap=4;jiggle=2;curveFitting=1;fontFamily=Architects Daughter;fontSource=https%3A%2F%2Ffonts.googleapis.com%2Fcss%3Ffamily%3DArchitects%2BDaughter;fontSize=20;fillColor=#fad7ac;strokeColor=#b46504;" parent="4v6q54yL7Kz8wPH0n8rs-17" vertex="1">
          <mxGeometry x="27" y="414" width="134" height="80" as="geometry" />
        </mxCell>
        <mxCell id="4v6q54yL7Kz8wPH0n8rs-71" value="&lt;font face=&quot;Comic Sans MS&quot;&gt;styles&lt;/font&gt;" style="rounded=0;whiteSpace=wrap;html=1;sketch=1;hachureGap=4;jiggle=2;curveFitting=1;fontFamily=Architects Daughter;fontSource=https%3A%2F%2Ffonts.googleapis.com%2Fcss%3Ffamily%3DArchitects%2BDaughter;fontSize=20;fillColor=#fad7ac;strokeColor=#b46504;" parent="4v6q54yL7Kz8wPH0n8rs-17" vertex="1">
          <mxGeometry x="178" y="414" width="132" height="80" as="geometry" />
        </mxCell>
        <mxCell id="4v6q54yL7Kz8wPH0n8rs-72" value="&lt;font face=&quot;Comic Sans MS&quot;&gt;links&lt;/font&gt;" style="rounded=0;whiteSpace=wrap;html=1;sketch=1;hachureGap=4;jiggle=2;curveFitting=1;fontFamily=Architects Daughter;fontSource=https%3A%2F%2Ffonts.googleapis.com%2Fcss%3Ffamily%3DArchitects%2BDaughter;fontSize=20;fillColor=#fad7ac;strokeColor=#b46504;" parent="4v6q54yL7Kz8wPH0n8rs-17" vertex="1">
          <mxGeometry x="320" y="414" width="145" height="80" as="geometry" />
        </mxCell>
        <mxCell id="4v6q54yL7Kz8wPH0n8rs-78" style="edgeStyle=orthogonalEdgeStyle;rounded=0;sketch=1;hachureGap=4;jiggle=2;curveFitting=1;orthogonalLoop=1;jettySize=auto;html=1;exitX=0;exitY=0.5;exitDx=0;exitDy=0;fontFamily=Architects Daughter;fontSource=https%3A%2F%2Ffonts.googleapis.com%2Fcss%3Ffamily%3DArchitects%2BDaughter;fontSize=16;strokeColor=#FF6666;" parent="4v6q54yL7Kz8wPH0n8rs-17" source="4v6q54yL7Kz8wPH0n8rs-73" edge="1">
          <mxGeometry relative="1" as="geometry">
            <mxPoint x="243" y="344" as="targetPoint" />
          </mxGeometry>
        </mxCell>
        <mxCell id="Xq_WoBRvCpadnjwO7v99-11" style="edgeStyle=orthogonalEdgeStyle;rounded=0;sketch=1;hachureGap=4;jiggle=2;curveFitting=1;orthogonalLoop=1;jettySize=auto;html=1;exitX=0.5;exitY=1;exitDx=0;exitDy=0;entryX=0.5;entryY=0;entryDx=0;entryDy=0;fontFamily=Architects Daughter;fontSource=https%3A%2F%2Ffonts.googleapis.com%2Fcss%3Ffamily%3DArchitects%2BDaughter;fontSize=16;" parent="4v6q54yL7Kz8wPH0n8rs-17" source="4v6q54yL7Kz8wPH0n8rs-73" target="Xq_WoBRvCpadnjwO7v99-10" edge="1">
          <mxGeometry relative="1" as="geometry" />
        </mxCell>
        <mxCell id="4v6q54yL7Kz8wPH0n8rs-73" value="&lt;font face=&quot;Comic Sans MS&quot;&gt;&lt;font color=&quot;#ff0000&quot;&gt;compile-module&lt;/font&gt; plugin&lt;br&gt;&lt;/font&gt;" style="rounded=0;whiteSpace=wrap;html=1;sketch=1;hachureGap=4;jiggle=2;curveFitting=1;fontFamily=Architects Daughter;fontSource=https%3A%2F%2Ffonts.googleapis.com%2Fcss%3Ffamily%3DArchitects%2BDaughter;fontSize=20;fillColor=#fad9d5;strokeColor=#ae4132;" parent="4v6q54yL7Kz8wPH0n8rs-17" vertex="1">
          <mxGeometry x="542" y="323" width="247" height="44" as="geometry" />
        </mxCell>
        <mxCell id="4v6q54yL7Kz8wPH0n8rs-79" value="&lt;font style=&quot;font-size: 14px;&quot; face=&quot;Comic Sans MS&quot;&gt;compile-module&lt;/font&gt;" style="text;html=1;strokeColor=none;fillColor=none;align=center;verticalAlign=middle;whiteSpace=wrap;rounded=0;fontSize=20;fontFamily=Architects Daughter;" parent="4v6q54yL7Kz8wPH0n8rs-17" vertex="1">
          <mxGeometry x="325" y="306" width="113" height="30" as="geometry" />
        </mxCell>
        <mxCell id="4v6q54yL7Kz8wPH0n8rs-81" value="" style="rounded=0;whiteSpace=wrap;html=1;sketch=1;hachureGap=4;jiggle=2;curveFitting=1;fontFamily=Architects Daughter;fontSource=https%3A%2F%2Ffonts.googleapis.com%2Fcss%3Ffamily%3DArchitects%2BDaughter;fontSize=20;fillColor=#d0cee2;strokeColor=#56517e;" parent="4v6q54yL7Kz8wPH0n8rs-17" vertex="1">
          <mxGeometry x="11" y="560" width="469" height="130" as="geometry" />
        </mxCell>
        <mxCell id="4v6q54yL7Kz8wPH0n8rs-82" value="&lt;font face=&quot;Comic Sans MS&quot;&gt;html tags&lt;/font&gt;" style="text;html=1;strokeColor=none;fillColor=none;align=center;verticalAlign=middle;whiteSpace=wrap;rounded=0;fontSize=20;fontFamily=Architects Daughter;" parent="4v6q54yL7Kz8wPH0n8rs-17" vertex="1">
          <mxGeometry x="155" y="561" width="170" height="30" as="geometry" />
        </mxCell>
        <mxCell id="4v6q54yL7Kz8wPH0n8rs-83" value="&lt;font face=&quot;Comic Sans MS&quot;&gt;&amp;lt;script&amp;gt;&amp;lt;/script&amp;gt;&lt;/font&gt;" style="rounded=0;whiteSpace=wrap;html=1;sketch=1;hachureGap=4;jiggle=2;curveFitting=1;fontFamily=Architects Daughter;fontSource=https%3A%2F%2Ffonts.googleapis.com%2Fcss%3Ffamily%3DArchitects%2BDaughter;fontSize=20;fillColor=#fad7ac;strokeColor=#b46504;" parent="4v6q54yL7Kz8wPH0n8rs-17" vertex="1">
          <mxGeometry x="27" y="598" width="134" height="80" as="geometry" />
        </mxCell>
        <mxCell id="4v6q54yL7Kz8wPH0n8rs-84" value="&lt;font face=&quot;Comic Sans MS&quot;&gt;&amp;lt;style&amp;gt;&amp;lt;/style&amp;gt;&lt;/font&gt;" style="rounded=0;whiteSpace=wrap;html=1;sketch=1;hachureGap=4;jiggle=2;curveFitting=1;fontFamily=Architects Daughter;fontSource=https%3A%2F%2Ffonts.googleapis.com%2Fcss%3Ffamily%3DArchitects%2BDaughter;fontSize=20;fillColor=#fad7ac;strokeColor=#b46504;" parent="4v6q54yL7Kz8wPH0n8rs-17" vertex="1">
          <mxGeometry x="178" y="598" width="132" height="80" as="geometry" />
        </mxCell>
        <mxCell id="4v6q54yL7Kz8wPH0n8rs-85" value="&lt;font face=&quot;Comic Sans MS&quot;&gt;&amp;lt;link /&amp;gt;&lt;/font&gt;" style="rounded=0;whiteSpace=wrap;html=1;sketch=1;hachureGap=4;jiggle=2;curveFitting=1;fontFamily=Architects Daughter;fontSource=https%3A%2F%2Ffonts.googleapis.com%2Fcss%3Ffamily%3DArchitects%2BDaughter;fontSize=20;fillColor=#fad7ac;strokeColor=#b46504;" parent="4v6q54yL7Kz8wPH0n8rs-17" vertex="1">
          <mxGeometry x="320" y="598" width="145" height="80" as="geometry" />
        </mxCell>
        <mxCell id="4v6q54yL7Kz8wPH0n8rs-88" style="edgeStyle=orthogonalEdgeStyle;rounded=0;sketch=1;hachureGap=4;jiggle=2;curveFitting=1;orthogonalLoop=1;jettySize=auto;html=1;exitX=0;exitY=0.5;exitDx=0;exitDy=0;fontFamily=Architects Daughter;fontSource=https%3A%2F%2Ffonts.googleapis.com%2Fcss%3Ffamily%3DArchitects%2BDaughter;fontSize=16;strokeColor=#FF6666;" parent="4v6q54yL7Kz8wPH0n8rs-17" source="4v6q54yL7Kz8wPH0n8rs-87" edge="1">
          <mxGeometry relative="1" as="geometry">
            <mxPoint x="243" y="530" as="targetPoint" />
          </mxGeometry>
        </mxCell>
        <mxCell id="Xq_WoBRvCpadnjwO7v99-14" style="edgeStyle=orthogonalEdgeStyle;rounded=0;sketch=1;hachureGap=4;jiggle=2;curveFitting=1;orthogonalLoop=1;jettySize=auto;html=1;exitX=0.5;exitY=1;exitDx=0;exitDy=0;entryX=0.5;entryY=0;entryDx=0;entryDy=0;fontFamily=Architects Daughter;fontSource=https%3A%2F%2Ffonts.googleapis.com%2Fcss%3Ffamily%3DArchitects%2BDaughter;fontSize=16;" parent="4v6q54yL7Kz8wPH0n8rs-17" source="4v6q54yL7Kz8wPH0n8rs-87" target="Xq_WoBRvCpadnjwO7v99-13" edge="1">
          <mxGeometry relative="1" as="geometry" />
        </mxCell>
        <mxCell id="4v6q54yL7Kz8wPH0n8rs-87" value="&lt;font face=&quot;Comic Sans MS&quot;&gt;&lt;font color=&quot;#ff0000&quot;&gt;emit&lt;/font&gt; plugin&lt;br&gt;&lt;/font&gt;" style="rounded=0;whiteSpace=wrap;html=1;sketch=1;hachureGap=4;jiggle=2;curveFitting=1;fontFamily=Architects Daughter;fontSource=https%3A%2F%2Ffonts.googleapis.com%2Fcss%3Ffamily%3DArchitects%2BDaughter;fontSize=20;fillColor=#fad9d5;strokeColor=#ae4132;" parent="4v6q54yL7Kz8wPH0n8rs-17" vertex="1">
          <mxGeometry x="564.75" y="510" width="201.5" height="40" as="geometry" />
        </mxCell>
        <mxCell id="4v6q54yL7Kz8wPH0n8rs-89" value="&lt;font style=&quot;font-size: 14px;&quot; face=&quot;Comic Sans MS&quot;&gt;emit-html&lt;/font&gt;" style="text;html=1;strokeColor=none;fillColor=none;align=center;verticalAlign=middle;whiteSpace=wrap;rounded=0;fontSize=20;fontFamily=Architects Daughter;" parent="4v6q54yL7Kz8wPH0n8rs-17" vertex="1">
          <mxGeometry x="321" y="502" width="113" height="30" as="geometry" />
        </mxCell>
        <mxCell id="4v6q54yL7Kz8wPH0n8rs-91" value="&lt;font face=&quot;Comic Sans MS&quot;&gt;Compiler&lt;/font&gt;" style="text;html=1;strokeColor=none;fillColor=none;align=center;verticalAlign=middle;whiteSpace=wrap;rounded=0;fontSize=20;fontFamily=Architects Daughter;" parent="4v6q54yL7Kz8wPH0n8rs-17" vertex="1">
          <mxGeometry x="581.5" y="40" width="170" height="30" as="geometry" />
        </mxCell>
        <mxCell id="Xq_WoBRvCpadnjwO7v99-5" style="edgeStyle=orthogonalEdgeStyle;rounded=0;sketch=1;hachureGap=4;jiggle=2;curveFitting=1;orthogonalLoop=1;jettySize=auto;html=1;exitX=0.5;exitY=1;exitDx=0;exitDy=0;entryX=0.5;entryY=0;entryDx=0;entryDy=0;fontFamily=Architects Daughter;fontSource=https%3A%2F%2Ffonts.googleapis.com%2Fcss%3Ffamily%3DArchitects%2BDaughter;fontSize=16;" parent="4v6q54yL7Kz8wPH0n8rs-17" source="Xq_WoBRvCpadnjwO7v99-3" target="Xq_WoBRvCpadnjwO7v99-4" edge="1">
          <mxGeometry relative="1" as="geometry" />
        </mxCell>
        <mxCell id="Xq_WoBRvCpadnjwO7v99-3" value="&lt;font face=&quot;Comic Sans MS&quot;&gt;after-init&lt;/font&gt;" style="text;html=1;strokeColor=none;fillColor=none;align=center;verticalAlign=middle;whiteSpace=wrap;rounded=0;fontSize=20;fontFamily=Architects Daughter;fontColor=#FF0000;" parent="4v6q54yL7Kz8wPH0n8rs-17" vertex="1">
          <mxGeometry x="581.5" y="80" width="168.5" height="20" as="geometry" />
        </mxCell>
        <mxCell id="Xq_WoBRvCpadnjwO7v99-6" style="edgeStyle=orthogonalEdgeStyle;rounded=0;sketch=1;hachureGap=4;jiggle=2;curveFitting=1;orthogonalLoop=1;jettySize=auto;html=1;exitX=0.5;exitY=1;exitDx=0;exitDy=0;entryX=0.5;entryY=0;entryDx=0;entryDy=0;fontFamily=Architects Daughter;fontSource=https%3A%2F%2Ffonts.googleapis.com%2Fcss%3Ffamily%3DArchitects%2BDaughter;fontSize=16;" parent="4v6q54yL7Kz8wPH0n8rs-17" source="Xq_WoBRvCpadnjwO7v99-4" target="4v6q54yL7Kz8wPH0n8rs-53" edge="1">
          <mxGeometry relative="1" as="geometry" />
        </mxCell>
        <mxCell id="Xq_WoBRvCpadnjwO7v99-4" value="&lt;font face=&quot;Comic Sans MS&quot;&gt;brfore-transform&lt;/font&gt;" style="text;html=1;strokeColor=none;fillColor=none;align=center;verticalAlign=middle;whiteSpace=wrap;rounded=0;fontSize=20;fontFamily=Architects Daughter;fontColor=#FF0000;" parent="4v6q54yL7Kz8wPH0n8rs-17" vertex="1">
          <mxGeometry x="571.5" y="124.5" width="188.5" height="20" as="geometry" />
        </mxCell>
        <mxCell id="Xq_WoBRvCpadnjwO7v99-9" style="edgeStyle=orthogonalEdgeStyle;rounded=0;sketch=1;hachureGap=4;jiggle=2;curveFitting=1;orthogonalLoop=1;jettySize=auto;html=1;exitX=0.5;exitY=1;exitDx=0;exitDy=0;entryX=0.5;entryY=0;entryDx=0;entryDy=0;fontFamily=Architects Daughter;fontSource=https%3A%2F%2Ffonts.googleapis.com%2Fcss%3Ffamily%3DArchitects%2BDaughter;fontSize=16;" parent="4v6q54yL7Kz8wPH0n8rs-17" source="Xq_WoBRvCpadnjwO7v99-7" target="4v6q54yL7Kz8wPH0n8rs-73" edge="1">
          <mxGeometry relative="1" as="geometry" />
        </mxCell>
        <mxCell id="Xq_WoBRvCpadnjwO7v99-7" value="&lt;font face=&quot;Comic Sans MS&quot;&gt;brfore-compile&lt;/font&gt;" style="text;html=1;strokeColor=none;fillColor=none;align=center;verticalAlign=middle;whiteSpace=wrap;rounded=0;fontSize=20;fontFamily=Architects Daughter;fontColor=#FF0000;" parent="4v6q54yL7Kz8wPH0n8rs-17" vertex="1">
          <mxGeometry x="571.25" y="250" width="188.5" height="20" as="geometry" />
        </mxCell>
        <mxCell id="Xq_WoBRvCpadnjwO7v99-12" style="edgeStyle=orthogonalEdgeStyle;rounded=0;sketch=1;hachureGap=4;jiggle=2;curveFitting=1;orthogonalLoop=1;jettySize=auto;html=1;exitX=0.5;exitY=1;exitDx=0;exitDy=0;entryX=0.5;entryY=0;entryDx=0;entryDy=0;fontFamily=Architects Daughter;fontSource=https%3A%2F%2Ffonts.googleapis.com%2Fcss%3Ffamily%3DArchitects%2BDaughter;fontSize=16;" parent="4v6q54yL7Kz8wPH0n8rs-17" source="Xq_WoBRvCpadnjwO7v99-10" target="4v6q54yL7Kz8wPH0n8rs-87" edge="1">
          <mxGeometry relative="1" as="geometry" />
        </mxCell>
        <mxCell id="Xq_WoBRvCpadnjwO7v99-10" value="&lt;font face=&quot;Comic Sans MS&quot;&gt;brfore-emit&lt;/font&gt;" style="text;html=1;strokeColor=none;fillColor=none;align=center;verticalAlign=middle;whiteSpace=wrap;rounded=0;fontSize=20;fontFamily=Architects Daughter;fontColor=#FF0000;" parent="4v6q54yL7Kz8wPH0n8rs-17" vertex="1">
          <mxGeometry x="571.25" y="431" width="188.5" height="20" as="geometry" />
        </mxCell>
        <mxCell id="Xq_WoBRvCpadnjwO7v99-13" value="&lt;font face=&quot;Comic Sans MS&quot;&gt;after-emit&lt;/font&gt;" style="text;html=1;strokeColor=none;fillColor=none;align=center;verticalAlign=middle;whiteSpace=wrap;rounded=0;fontSize=20;fontFamily=Architects Daughter;fontColor=#FF0000;" parent="4v6q54yL7Kz8wPH0n8rs-17" vertex="1">
          <mxGeometry x="572.25" y="591" width="188.5" height="20" as="geometry" />
        </mxCell>
        <mxCell id="4v6q54yL7Kz8wPH0n8rs-92" style="edgeStyle=orthogonalEdgeStyle;rounded=0;sketch=1;hachureGap=4;jiggle=2;curveFitting=1;orthogonalLoop=1;jettySize=auto;html=1;exitX=0.5;exitY=1;exitDx=0;exitDy=0;entryX=1;entryY=0.5;entryDx=0;entryDy=0;fontFamily=Architects Daughter;fontSource=https%3A%2F%2Ffonts.googleapis.com%2Fcss%3Ffamily%3DArchitects%2BDaughter;fontSize=16;" parent="1" source="4v6q54yL7Kz8wPH0n8rs-81" target="4v6q54yL7Kz8wPH0n8rs-15" edge="1">
          <mxGeometry relative="1" as="geometry">
            <Array as="points">
              <mxPoint x="505" y="1200" />
              <mxPoint x="1253" y="1200" />
              <mxPoint x="1253" y="295" />
            </Array>
          </mxGeometry>
        </mxCell>
        <mxCell id="4v6q54yL7Kz8wPH0n8rs-93" value="&lt;font face=&quot;Comic Sans MS&quot;&gt;插入到 HTMl 中&lt;/font&gt;" style="text;html=1;strokeColor=none;fillColor=none;align=center;verticalAlign=middle;whiteSpace=wrap;rounded=0;fontSize=20;fontFamily=Architects Daughter;" parent="1" vertex="1">
          <mxGeometry x="1148" y="1100" width="230" height="30" as="geometry" />
        </mxCell>
        <mxCell id="Xq_WoBRvCpadnjwO7v99-1" style="edgeStyle=orthogonalEdgeStyle;rounded=0;sketch=1;hachureGap=4;jiggle=2;curveFitting=1;orthogonalLoop=1;jettySize=auto;html=1;exitX=0.5;exitY=1;exitDx=0;exitDy=0;entryX=0.122;entryY=0.003;entryDx=0;entryDy=0;entryPerimeter=0;fontFamily=Architects Daughter;fontSource=https%3A%2F%2Ffonts.googleapis.com%2Fcss%3Ffamily%3DArchitects%2BDaughter;fontSize=16;strokeColor=#FF8000;" parent="1" source="4v6q54yL7Kz8wPH0n8rs-13" target="4v6q54yL7Kz8wPH0n8rs-22" edge="1">
          <mxGeometry relative="1" as="geometry" />
        </mxCell>
        <mxCell id="Xq_WoBRvCpadnjwO7v99-2" style="edgeStyle=orthogonalEdgeStyle;rounded=0;sketch=1;hachureGap=4;jiggle=2;curveFitting=1;orthogonalLoop=1;jettySize=auto;html=1;exitX=0.5;exitY=1;exitDx=0;exitDy=0;entryX=0.5;entryY=0;entryDx=0;entryDy=0;fontFamily=Architects Daughter;fontSource=https%3A%2F%2Ffonts.googleapis.com%2Fcss%3Ffamily%3DArchitects%2BDaughter;fontSize=16;strokeColor=#99CCFF;" parent="1" source="4v6q54yL7Kz8wPH0n8rs-14" target="4v6q54yL7Kz8wPH0n8rs-40" edge="1">
          <mxGeometry relative="1" as="geometry">
            <Array as="points">
              <mxPoint x="578" y="430" />
              <mxPoint x="356" y="430" />
            </Array>
          </mxGeometry>
        </mxCell>
      </root>
    </mxGraphModel>
  </diagram>
</mxfile>
